<svg width="36" height="36" viewBox="0 0 36 36" fill="none" xmlns="http://www.w3.org/2000/svg">
<path d="M36 18C36 8.05887 27.9411 0 18 0C8.05887 0 0 8.05887 0 18C0 27.9411 8.05887 36 18 36C27.9411 36 36 27.9411 36 18Z" fill="url(#paint0_linear_378_48)"/>
<path opacity="0.9" fill-rule="evenodd" clip-rule="evenodd" d="M12.3742 24.04C12.8217 22.9 13.6022 21.9212 14.6141 21.2314C15.626 20.5415 16.8222 20.1725 18.0469 20.1725C19.2715 20.1725 20.4678 20.5415 21.4797 21.2314C22.4915 21.9212 23.2721 22.9 23.7195 24.04L18.0469 27.2986L12.3742 24.0397V24.04ZM18.0469 9.61249L25.7148 22.8938L24.5742 23.5489C24.0372 22.2604 23.1308 21.1596 21.9692 20.3853C20.8076 19.611 19.4429 19.1979 18.0469 19.1979C16.6509 19.1979 15.2861 19.611 14.1246 20.3853C12.963 21.1596 12.0566 22.2604 11.5195 23.5489L10.379 22.8942L18.0469 9.61201V9.61249ZM18.0469 7.66394L9.04688 23.2519L18.0469 28.4224L27.0469 23.2519L18.0469 7.66394Z" fill="white"/>
<defs>
<linearGradient id="paint0_linear_378_48" x1="5.148" y1="3.636" x2="32.796" y2="32.616" gradientUnits="userSpaceOnUse">
<stop stop-color="#FF9E00"/>
<stop offset="0.256" stop-color="#FF3B48"/>
<stop offset="0.724" stop-color="#E52A71"/>
<stop offset="1" stop-color="#A500DD"/>
</linearGradient>
</defs>
</svg>
